<?xml version="1.0" encoding="utf-8"?>
<!-- Generator: Adobe Illustrator 27.8.1, SVG Export Plug-In . SVG Version: 6.00 Build 0)  -->
<svg version="1.1" id="Layer_1" xmlns="http://www.w3.org/2000/svg" xmlns:xlink="http://www.w3.org/1999/xlink" x="0px" y="0px"
	 viewBox="0 0 1000 458.6" style="enable-background:new 0 0 1000 458.6;" xml:space="preserve">
<style type="text/css">
	.st0{fill:none;}
	.st1{fill:#05699A;}
	.st2{fill:#68BBE1;}
	.st3{fill:#198BCC;}
	.st4{fill:#231F20;}
</style>
<g>
	<g>
		<path class="st3" d="M186.4,150.6c0-3.7-1.3-7.1-3.8-9.5c-2.5-2.5-5.9-3.9-10.1-3.9c-3.3,0-6.1,0.7-8.2,2.3
			c-2.1,1.5-3.6,3.8-4.8,6.7l0,0L93.1,296.1L26.9,146.1l0,0c-1.2-2.9-2.6-5.1-4.8-6.7s-4.9-2.3-8.2-2.3c-4.2,0-7.6,1.4-10.1,3.9
			C1.3,143.6,0,147,0,150.6c0,2.6,1,5.3,1.9,7.2l0,0l78.9,176.2l0,0c1.2,2.4,2.5,4.4,4.5,5.9c2,1.5,4.6,2.4,8,2.4
			c3.3,0,5.9-0.8,8-2.4s3.3-3.7,4.5-5.9l0,0l78.9-176.2l0,0C185.5,156,186.4,153.3,186.4,150.6z"/>
	</g>
	<g>
		<path class="st3" d="M382.1,237.6c0-28.4-9.6-53.5-26.3-71.4s-40.3-28.8-67.7-28.6c-29.5,0-54.4,12-72,30.8s-27.7,44.3-27.7,71.5
			c0,27,9.6,52.5,27.2,71.4c17.6,18.9,43.2,30.9,75.1,30.9c35.2,0,64.3-16.4,79.6-37.7l0,0l0,0c1.9-2.7,3.1-5.7,3.1-9.3
			c0-3.4-1.2-6.8-3.6-9.4c-2.4-2.5-5.8-4.2-10-4.2c-3,0-5.5,1-7.5,2.3c-2,1.3-3.4,3-4.6,4.3l0,0c-15.3,18.2-33.4,26.4-57.1,26.5
			c-22.2,0-39.3-8.2-51.3-20.6c-11.3-11.6-17.7-27.1-18.9-43h148.2C375.7,251,382,245.2,382.1,237.6z M288.1,164.5
			c18.1,0,33.3,6.8,44.6,17.9c10.7,10.6,17.7,25.1,19.8,41.6h-131C226.1,190.9,252.2,164.5,288.1,164.5z"/>
	</g>
	<g>
		<path class="st3" d="M511.1,141.3c-3-2.5-6.9-3.7-11.2-3.7c-27.6,0-49.7,14.3-61.1,34.6v-18.7c0-4.4-1.5-8.4-4.4-11.3
			c-2.9-2.9-6.9-4.6-11.5-4.6c-4.4,0-8.4,1.5-11.3,4.4s-4.6,6.9-4.6,11.5v172.6c0.1,8.7,7.2,15.8,15.9,15.9c9,0,15.9-7.4,15.9-15.9
			v-76.6c0-24.4,6.3-45.3,17.1-60c10.8-14.7,25.9-23.3,44-23.3c4,0,8-1.1,10.9-3.6c3.1-2.5,5-6.3,5-11
			C515.9,147.4,514.1,143.6,511.1,141.3z"/>
	</g>
	<g>
		<path class="st3" d="M662,137.7h-42.1V78.4c0-4.4-1.7-8.4-4.6-11.3c-2.9-2.9-6.9-4.6-11.3-4.6c-4.4,0-8.4,1.7-11.3,4.6
			c-2.9,2.9-4.6,6.9-4.6,11.3v59.3h-36.7c-3.8,0-7.2,1.5-9.7,3.9c-2.5,2.5-3.9,5.9-3.9,9.7s1.5,7.2,3.9,9.7c2.5,2.5,5.9,3.9,9.7,3.9
			h36.7v160.3c0,4.4,1.7,8.6,4.5,11.5s6.9,5,11.4,5s8.6-1.8,11.3-4.8c2.9-3,4.5-7,4.5-11.4V165.1h42.1c7.2,0,13.7-5.9,13.7-13.7
			C675.5,143.6,669.1,137.8,662,137.7z"/>
	</g>
	<g>
		<path class="st0" d="M841.5,429.1c3.7,8.6,12.2,14.5,22.1,14.5c13.3,0,24-10.8,24-24c0-4-1-7.8-2.7-11.2c-4.2-7.4-12-12.4-21-12.4
			c-13.3,0-24.1,10.8-24.1,24.1C839.8,423.3,840.4,426.4,841.5,429.1z"/>
		<path class="st0" d="M724.2,59.3c-13.3,0-24.1,10.8-24.1,24.1c0,2.5,0.4,4.9,1.1,7.1c3.1,9.7,12.1,16.8,22.9,16.8
			c13.3,0,24-10.8,24-24c0-6.7-2.7-12.6-7-17C736.8,62,730.9,59.3,724.2,59.3z"/>
		<circle class="st0" cx="772.5" cy="239.2" r="74.8"/>
		<path class="st0" d="M961.7,285.6c-13.3,0-24.1,10.8-24.1,24.1c0,5.7,2,11,5.3,15.1c4.4,5.2,10.9,8.6,18.3,8.6
			c13.3,0,24-10.8,24-24c0-6.7-2.6-12.6-7-16.9C974.1,288.2,968.2,285.6,961.7,285.6z"/>
		<path class="st0" d="M897.8,98.3c4.6,1.9,9.6,3,14.9,3c21.3,0,38.5-17.2,38.5-38.5c0-19.8-15.1-36.2-34.3-38.3
			c-1.2-0.1-2.5-0.2-3.8-0.2c-21.3,0-38.5,17.2-38.5,38.5C874.5,78.8,884.2,92.3,897.8,98.3z"/>
		<path class="st1" d="M850.2,62.4l-16.8,1.8c-0.1,0-0.2,0-0.4,0l-54.8,5.9c-0.1,0-0.2,0-0.4,0L761,72c-2.6-8.6-8.1-15.8-15.3-20.7
			c-6.2-4.2-13.5-6.7-21.5-6.7c-21.3,0-38.5,17.2-38.5,38.5c0,2.6,0.2,5.2,0.8,7.7c3.6,17.6,19.1,30.9,37.8,30.9
			c20.3,0,36.8-15.7,38.4-35.5l89.1-9.7c-1.1-4.5-1.7-9.3-1.7-14.1C850.2,62.5,850.2,62.4,850.2,62.4z M724.2,107.4
			c-10.8,0-19.8-7-22.9-16.8c-0.7-2.3-1.1-4.6-1.1-7.1c0-13.3,10.8-24.1,24.1-24.1c6.7,0,12.6,2.6,17,7c4.4,4.4,7,10.3,7,17
			C748.2,96.6,737.5,107.4,724.2,107.4z"/>
		<path class="st2" d="M913,0h-0.1h-0.1c-34.5,0-62.4,27.9-62.5,62.4v0.1c0,4.9,0.6,9.6,1.7,14.1c2.7,11.5,8.6,21.9,16.6,30.1
			L858,120c-0.1,0.1-0.1,0.1-0.2,0.2l-17.6,22c0,0.1-0.1,0.1-0.1,0.2l-10.2,12.8c4,2.7,7.7,5.7,11.3,9l38.6-48.6
			c1.1,0.6,2.1,1.3,3.2,1.9c9.9,5.5,21.4,8.2,33.6,7.6c31.1-1.8,56.6-26.6,58.8-57.7C978.1,30.7,949.1,0,913,0z M916.6,101
			c-6.7,0.7-13.1-0.4-18.8-2.7c-13.8-5.9-23.3-19.5-23.3-35.4c0-21.3,17.2-38.5,38.5-38.5c1.3,0,2.5,0.1,3.8,0.2
			c20.4,2.1,36.1,20.3,34.2,41.8C949.4,84.5,934.8,99.2,916.6,101z"/>
		<path class="st1" d="M987.3,281.6c-6.9-6.3-15.9-10.1-26-10.1c-13.8,0-25.9,7.2-32.7,18.2L869.9,268c-1.4,4.6-3.1,9.1-5.1,13.4
			l15.4,5.7c0.1,0.1,0.4,0.1,0.5,0.2L907,297c0.1,0,0.4,0.1,0.5,0.1l15.8,5.8c-0.4,2.3-0.6,4.5-0.6,6.9c0,8.8,3,17,8,23.4
			c7,9.4,18.3,15.4,30.9,15.4c21.3,0,38.5-17.2,38.5-38.5C1000.2,298.9,995.2,288.6,987.3,281.6z M961.4,333.4
			c-7.4,0-13.9-3.3-18.3-8.6c-3.3-4.2-5.3-9.4-5.3-15.1c0-13.3,10.8-24.1,24.1-24.1c6.5,0,12.4,2.6,16.8,6.8c4.3,4.4,7,10.3,7,16.9
			C985.4,322.6,974.6,333.4,961.4,333.4z"/>
		<path class="st2" d="M840.1,389.2c-9,7-14.9,18.1-14.9,30.4c0,4.8,0.8,9.3,2.4,13.4c5.3,14.9,19.6,25.5,36.2,25.5
			c21.3,0,38.5-17.2,38.5-38.5c0-6.9-1.8-13.2-4.9-18.8c-6.5-12-19.2-20.2-33.9-20.2c-3.7,0-7.4,0.6-10.8,1.5l-7.8-15.3
			c0-0.1-0.1-0.1-0.1-0.2l-12.6-24.9c0-0.1-0.1-0.1-0.1-0.2l-7.8-15.3c-4.2,2.5-8.4,4.6-12.8,6.4L840.1,389.2z M863.8,396.1
			c9,0,17,5,21,12.4c1.8,3.3,2.7,7.1,2.7,11.2c0,13.3-10.8,24-24,24c-9.9,0-18.4-5.9-22.1-14.5c-1.1-2.7-1.8-5.8-1.8-9
			C839.8,406.8,850.5,396.1,863.8,396.1z"/>
		<g>
			<path class="st3" d="M841.1,164.3c-3.6-3.2-7.4-6.3-11.3-9c-16.4-11.2-36.1-17.7-57.4-17.7c-56.2,0-101.7,45.5-101.7,101.7
				S716.3,341,772.5,341c13.8,0,27-2.7,39-7.7c4.5-1.9,8.8-4,12.8-6.4c17.7-10.6,32-26.3,40.6-45.1c2-4.4,3.7-8.8,5.1-13.4
				c2.7-9.1,4.2-18.8,4.2-28.9C874.2,209.6,861.5,182.8,841.1,164.3z M772.5,314c-41.2,0-74.8-33.6-74.8-74.8s33.6-74.8,74.8-74.8
				s74.8,33.6,74.8,74.8C847.3,280.5,813.7,314,772.5,314z"/>
		</g>
	</g>
</g>
</svg>
